<?xml version="1.0" encoding="UTF-8"?>
<svg id="Layer_2" data-name="Layer 2" xmlns="http://www.w3.org/2000/svg" xmlns:xlink="http://www.w3.org/1999/xlink" viewBox="0 0 234.76 41.85">
  <defs>
    <style>
      .cls-1 {
        fill: url(#linear-gradient-2);
      }

      .cls-2 {
        fill: #fff;
        fill-rule: evenodd;
      }

      .cls-3 {
        fill: url(#linear-gradient-3);
      }

      .cls-4 {
        fill: url(#linear-gradient);
      }
    </style>
    <linearGradient id="linear-gradient" x1="-1601.17" y1="180.09" x2="-1602.15" y2="179.09" gradientTransform="translate(40794.45 -5278.53) scale(25.75)" gradientUnits="userSpaceOnUse">
      <stop offset="0" stop-color="#ffd900"/>
      <stop offset="1" stop-color="#ffe422"/>
    </linearGradient>
    <linearGradient id="linear-gradient-2" x1="209.15" y1="21.53" x2="234.76" y2="21.53" gradientTransform="translate(0 48.2) scale(1 -1)" gradientUnits="userSpaceOnUse">
      <stop offset="0" stop-color="#f46b45"/>
      <stop offset="1" stop-color="#eea849"/>
    </linearGradient>
    <linearGradient id="linear-gradient-3" x1="-1544.11" y1="229.73" x2="-1543.12" y2="228.74" gradientTransform="translate(26659.57 -3902.07) scale(17.13)" gradientUnits="userSpaceOnUse">
      <stop offset="0" stop-color="#ff5858"/>
      <stop offset="1" stop-color="#fa9372"/>
    </linearGradient>
  </defs>
  <g id="Layer_2-2" data-name="Layer 2">
    <g id="Logo_Mark" data-name="Logo Mark">
      <path id="Path_1696" data-name="Path 1696" class="cls-4" d="M227.09,7.48c.68,0,1.24,.54,1.25,1.22v.06c-.14,2.94-.79,5.81-1.92,8.53-1.29,3.11-3.18,5.94-5.56,8.32s-5.21,4.27-8.32,5.56c-2.72,1.13-5.59,1.78-8.53,1.92-.68,.03-1.25-.51-1.29-1.19v-12.88c.03-.71,.57-1.29,1.27-1.37,.91-.11,1.79-.35,2.65-.7,1.24-.51,2.38-1.27,3.32-2.22,.95-.95,1.7-2.08,2.22-3.32,.35-.84,.59-1.73,.7-2.65,.06-.71,.65-1.25,1.37-1.27h12.82l.02-.02Z"/>
      <path id="Path_1697" data-name="Path 1697" class="cls-1" d="M210.4,39.47c-.68,0-1.24-.54-1.25-1.22v-.06c.14-2.94,.79-5.81,1.92-8.53,1.29-3.11,3.18-5.94,5.56-8.32s5.21-4.27,8.32-5.56c2.72-1.13,5.59-1.78,8.53-1.92,.68-.03,1.25,.51,1.29,1.18v12.88c-.03,.71-.57,1.29-1.27,1.37-.91,.11-1.79,.35-2.65,.7-1.24,.51-2.37,1.27-3.32,2.22-.95,.95-1.7,2.08-2.22,3.32-.35,.84-.59,1.73-.7,2.65-.06,.71-.65,1.25-1.37,1.27h-12.82l-.02,.03Z"/>
      <path id="Path_1698" data-name="Path 1698" class="cls-3" d="M227.25,14.96c-.24,.78-.52,1.56-.83,2.32-1.29,3.11-3.18,5.94-5.56,8.32-2.38,2.38-5.21,4.27-8.32,5.56-.76,.32-1.54,.59-2.32,.83,.24-.78,.52-1.56,.83-2.32,1.29-3.11,3.18-5.94,5.56-8.32s5.21-4.27,8.32-5.56c.76-.32,1.54-.59,2.32-.83Z"/>
    </g>
    <path id="Path_1682" data-name="Path 1682" class="cls-2" d="M70.63,12.88c1.78,0,3.21,1.44,3.21,3.22h0v3.22c0,1.78,1.43,3.22,3.21,3.22h9.63c1.78,0,3.21-1.44,3.21-3.22v-3.22c0-1.78,1.43-3.22,3.21-3.22h0c1.78,0,3.21,1.44,3.21,3.22h0v3.22c0,5.33-4.3,9.65-9.63,9.66h-9.63c-5.33,0-9.64-4.33-9.63-9.66v-3.22c0-1.78,1.43-3.22,3.21-3.22h0Z"/>
    <path id="Path_1683" data-name="Path 1683" class="cls-2" d="M77.05,35.41c0-1.78,1.44-3.22,3.21-3.22h9.63c1.78,0,3.21,1.44,3.21,3.22h0v3.22c0,1.78-1.43,3.22-3.21,3.22h0c-1.78,0-3.21-1.44-3.21-3.22h-6.42c-1.77,0-3.21-1.44-3.21-3.22Z"/>
    <path id="Path_1684" data-name="Path 1684" class="cls-2" d="M22.47,12.88c1.78,0,3.21,1.44,3.21,3.22h0v9.66c0,7.1-5.74,12.87-12.84,12.88-7.1-.02-12.84-5.79-12.84-12.89H0v-6.44c0-1.78,1.43-3.22,3.21-3.22s3.21,1.44,3.21,3.22v6.44c0,3.55,2.87,6.43,6.42,6.44h0c3.55,0,6.43-2.89,6.42-6.44h0v-9.66c0-1.78,1.43-3.22,3.21-3.22h0Z"/>
    <path id="Path_1685" data-name="Path 1685" class="cls-2" d="M35.31,12.88c1.78,0,3.21,1.44,3.21,3.22h0v3.22c0,1.78,1.44,3.22,3.21,3.22h0c1.78,0,3.21-1.44,3.21-3.22v-3.22c0-1.78,1.43-3.22,3.21-3.22h0c1.78,0,3.21,1.44,3.21,3.22h0v3.22c0,5.33-4.3,9.65-9.63,9.66-5.33,0-9.64-4.33-9.63-9.66v-3.22c0-1.78,1.43-3.22,3.21-3.22h0Z"/>
    <path id="Path_1686" data-name="Path 1686" class="cls-2" d="M22.47,12.88c1.78,0,3.21,1.44,3.21,3.22h0v3.22c0,1.78,1.44,3.22,3.21,3.22h0c1.78,0,3.21-1.44,3.21-3.22v-3.22c0-1.78,1.43-3.22,3.21-3.22h0c1.78,0,3.21,1.44,3.21,3.22h0v3.22c0,5.33-4.3,9.65-9.63,9.66-5.33,0-9.64-4.33-9.63-9.66v-3.22c0-1.78,1.43-3.22,3.21-3.22h0Z"/>
    <path id="Path_1694" data-name="Path 1694" class="cls-2" d="M70.63,0c-1.78,0-3.21,1.44-3.21,3.22h0v15.2c0,2.68-1.82,4.12-3.21,4.12h-6.42c-1.78,0-3.21,1.44-3.21,3.22s1.43,3.22,3.21,3.22h6.42c5.7,0,9.63-5.13,9.63-10.55V3.22c0-1.78-1.43-3.22-3.21-3.22h0Z"/>
    <path id="Path_1695" data-name="Path 1695" class="cls-2" d="M57.79,0c1.78,0,3.21,1.44,3.21,3.22h0v12.88c0,1.78-1.43,3.22-3.21,3.22s-3.21-1.44-3.21-3.22V3.22c0-1.78,1.43-3.22,3.21-3.22h0Z"/>
    <path id="Path_1691" data-name="Path 1691" class="cls-2" d="M112.3,12.49c1.78,0,3.21,1.44,3.21,3.22h0v3.54c.02,1.63,1.37,2.94,3,2.91,.07,0,.14,0,.21-.01h19.26c1.63,.14,3.06-1.06,3.2-2.69,0-.07,0-.14,0-.21v-3.54c0-1.78,1.43-3.22,3.21-3.22h0c1.78,0,3.21,1.44,3.21,3.22h0v3.54c-.02,5.18-4.23,9.36-9.41,9.34h-19.48c-5.18,.14-9.49-3.94-9.63-9.11v-3.76c0-1.78,1.43-3.22,3.21-3.22h0Z"/>
    <path id="Path_1692" data-name="Path 1692" class="cls-2" d="M128.36,38.58c1.77,0,3.21-1.44,3.21-3.22s-1.44-3.21-3.21-3.22c-1.77,0-3.21,1.44-3.21,3.22s1.44,3.21,3.21,3.22Z"/>
    <path id="Path_1690" data-name="Path 1690" class="cls-2" d="M152.41,35.09c0-1.78,1.43-3.22,3.21-3.22h9.63c1.78,0,3.21,1.44,3.21,3.22s-1.43,3.22-3.21,3.22h-9.63c-1.78,0-3.21-1.44-3.21-3.22Z"/>
    <path class="cls-2" d="M185.46,21.69c0,1.6,1.3,2.9,2.91,2.9h2.91c1.61,0,2.91,1.29,2.91,2.9s-1.3,2.9-2.91,2.9h-2.91c-4.81,0-8.72-3.89-8.72-8.7s3.91-8.7,8.73-8.7h2.91c.48,0,.94,.12,1.34,.33h.01c.12,.06,.25,.14,.36,.22,.73,.53,1.2,1.38,1.2,2.35h-.01c0,1.61-1.3,2.9-2.91,2.9h-2.91c-1.61,0-2.91,1.3-2.91,2.9Z"/>
    <path class="cls-2" d="M195.43,16.21v13.73c0,4.89-3.55,9.53-8.7,9.53h-5.8c-1.61,0-2.9-1.31-2.9-2.91s1.29-2.9,2.9-2.9h5.8c1.18,0,2.7-1.14,2.88-3.28,.01-.14,.02-.29,.02-.44v-13.73c0-1.61,1.29-2.91,2.9-2.91,.03,0,.07,0,.1,0h.01c.24,0,.46,.04,.68,.1,1.23,.35,2.11,1.47,2.11,2.8Z"/>
    <path class="cls-2" d="M168.46,12.55h0c-1.78,0-3.21,1.44-3.21,3.22v3.54c0,.07,0,.14,0,.21-.14,1.63-1.57,2.83-3.2,2.69h-11.26c-.07,0-.14,0-.21,.01-1.63,.02-2.97-1.28-3-2.91v-3.54h0c0-1.78-1.43-3.22-3.21-3.22h0c-1.78,0-3.21,1.44-3.21,3.22v3.76c.14,5.18,4.45,9.26,9.63,9.11h11.48c5.18,.02,9.39-4.16,9.41-9.34v-3.54h0c0-1.78-1.43-3.22-3.21-3.22h0Z"/>
  </g>
</svg>